<svg xmlns="http://www.w3.org/2000/svg" style="display:none">
<symbol id="icon-power" viewBox="0 0 24 24"><path d="M12 2v8" stroke="currentColor" stroke-width="1.8" stroke-linecap="round"/><path d="M6.3 6.3a8 8 0 1 0 11.4 0" stroke="currentColor" stroke-width="1.8" stroke-linecap="round" fill="none"/></symbol>
<symbol id="icon-camera" viewBox="0 0 24 24"><rect x="2.5" y="6.5" width="14" height="11" rx="2" stroke="currentColor" stroke-width="1.6" fill="none"/><path d="M16.5 10.5 21 8v8l-4.5-2.5" stroke="currentColor" stroke-width="1.6" stroke-linejoin="round" fill="none"/><circle cx="9.5" cy="12" r="2.6" stroke="currentColor" stroke-width="1.6" fill="none"/></symbol>
<symbol id="icon-sun" viewBox="0 0 24 24"><circle cx="12" cy="12" r="4" stroke="currentColor" stroke-width="1.6" fill="none"/><g stroke="currentColor" stroke-width="1.6" stroke-linecap="round"><path d="M12 2v3"/><path d="M12 19v3"/><path d="M4.2 4.2l2.1 2.1"/><path d="M17.7 17.7l2.1 2.1"/><path d="M2 12h3"/><path d="M19 12h3"/><path d="M4.2 19.8l2.1-2.1"/><path d="M17.7 6.3l2.1-2.1"/></g></symbol>
<symbol id="icon-lock" viewBox="0 0 24 24"><rect x="4.5" y="10.5" width="15" height="10" rx="2" stroke="currentColor" stroke-width="1.6" fill="none"/><path d="M7.5 10.5V7.5a4.5 4.5 0 0 1 9 0v3" stroke="currentColor" stroke-width="1.6" fill="none"/><circle cx="12" cy="15.3" r="1.4" fill="currentColor"/></symbol>
<symbol id="icon-house" viewBox="0 0 24 24"><path d="M3.5 11 12 4l8.5 7" stroke="currentColor" stroke-width="1.6" fill="none" stroke-linecap="round" stroke-linejoin="round"/><path d="M5.5 9.5V20h13V9.5" stroke="currentColor" stroke-width="1.6" fill="none" stroke-linejoin="round"/><path d="M10 20v-6h4v6" stroke="currentColor" stroke-width="1.6" fill="none"/></symbol>
<symbol id="icon-check" viewBox="0 0 24 24"><path d="M4 12.5 9.5 18 20 6" stroke="currentColor" stroke-width="2" fill="none" stroke-linecap="round" stroke-linejoin="round"/></symbol>
<symbol id="icon-arrow" viewBox="0 0 24 24"><path d="M5 12h13.5M13 6.5 18.5 12 13 17.5" stroke="currentColor" stroke-width="1.8" fill="none" stroke-linecap="round" stroke-linejoin="round"/></symbol>
<symbol id="icon-phone" viewBox="0 0 24 24"><path d="M5.5 4.5h3l1.5 4-2 1.5a11 11 0 0 0 6 6l1.5-2 4 1.5v3a2 2 0 0 1-2.2 2A16.5 16.5 0 0 1 3.5 6.7a2 2 0 0 1 2-2.2Z" stroke="currentColor" stroke-width="1.6" fill="none" stroke-linejoin="round"/></symbol>
<symbol id="icon-mail" viewBox="0 0 24 24"><rect x="3" y="5.5" width="18" height="13" rx="2" stroke="currentColor" stroke-width="1.6" fill="none"/><path d="m4 7 8 6 8-6" stroke="currentColor" stroke-width="1.6" fill="none" stroke-linecap="round" stroke-linejoin="round"/></symbol>
<symbol id="icon-pin" viewBox="0 0 24 24"><path d="M12 21s7-7.2 7-12a7 7 0 1 0-14 0c0 4.8 7 12 7 12Z" stroke="currentColor" stroke-width="1.6" fill="none" stroke-linejoin="round"/><circle cx="12" cy="9" r="2.4" stroke="currentColor" stroke-width="1.6" fill="none"/></symbol>
<symbol id="icon-quote" viewBox="0 0 24 24"><path d="M8.5 6.5C5.8 7.6 4 10 4 13.2c0 2.2 1.6 3.8 3.6 3.8 1.8 0 3.1-1.3 3.1-3 0-1.6-1.1-2.8-2.6-3-0.2-1.5 1-2.9 2.5-3.5L8.5 6.5Z" fill="currentColor"/><path d="M17 6.5c-2.7 1.1-4.5 3.5-4.5 6.7 0 2.2 1.6 3.8 3.6 3.8 1.8 0 3.1-1.3 3.1-3 0-1.6-1.1-2.8-2.6-3-0.2-1.5 1-2.9 2.5-3.5L17 6.5Z" fill="currentColor"/></symbol>
<symbol id="icon-shield" viewBox="0 0 24 24"><path d="M12 3l7 3v6c0 4.8-3 8.3-7 9-4-.7-7-4.2-7-9V6l7-3Z" stroke="currentColor" stroke-width="1.6" fill="none" stroke-linejoin="round"/></symbol>
<symbol id="icon-menu" viewBox="0 0 24 24"><path d="M3.5 6.5h17M3.5 12h17M3.5 17.5h17" stroke="currentColor" stroke-width="1.8" stroke-linecap="round"/></symbol>
<symbol id="icon-close" viewBox="0 0 24 24"><path d="M5 5l14 14M19 5 5 19" stroke="currentColor" stroke-width="1.8" stroke-linecap="round"/></symbol>
<symbol id="icon-wifi" viewBox="0 0 24 24"><path d="M3 9.5a13 13 0 0 1 18 0" stroke="currentColor" stroke-width="1.6" fill="none" stroke-linecap="round"/><path d="M6.5 13a8 8 0 0 1 11 0" stroke="currentColor" stroke-width="1.6" fill="none" stroke-linecap="round"/><path d="M10 16.5a3 3 0 0 1 4 0" stroke="currentColor" stroke-width="1.6" fill="none" stroke-linecap="round"/><circle cx="12" cy="19.3" r="1.1" fill="currentColor"/></symbol>
<symbol id="icon-tool" viewBox="0 0 24 24"><path d="M14.7 6.3a4 4 0 0 0-5.4 4.6L3 17.2l2.8 2.8 6.3-6.3a4 4 0 0 0 4.6-5.4l-2.6 2.6-2.1-.5-.5-2.1 2.6-2.6Z" stroke="currentColor" stroke-width="1.5" fill="none" stroke-linejoin="round"/></symbol>
<symbol id="icon-clock" viewBox="0 0 24 24"><circle cx="12" cy="12" r="8.5" stroke="currentColor" stroke-width="1.6" fill="none"/><path d="M12 7v5l3.5 2" stroke="currentColor" stroke-width="1.6" stroke-linecap="round" fill="none"/></symbol>
<symbol id="icon-play" viewBox="0 0 24 24"><path d="M8 5.5v13l11-6.5-11-6.5Z" fill="currentColor"/></symbol>
</svg>
